<svg id="Group_2_copy_7" data-name="Group 2 copy 7" xmlns="http://www.w3.org/2000/svg" xmlns:xlink="http://www.w3.org/1999/xlink" width="1280" height="720" viewBox="0 0 1280 720">
  <defs>
    <style>
      .cls-1 {
        fill: url(#linear-gradient);
      }

      .cls-2 {
        fill: #fff;
      }

      .cls-10, .cls-11, .cls-12, .cls-13, .cls-14, .cls-15, .cls-16, .cls-17, .cls-18, .cls-19, .cls-2, .cls-20, .cls-21, .cls-22, .cls-23, .cls-24, .cls-25, .cls-26, .cls-27, .cls-28, .cls-29, .cls-3, .cls-30, .cls-31, .cls-32, .cls-33, .cls-34, .cls-35, .cls-36, .cls-37, .cls-38, .cls-39, .cls-4, .cls-40, .cls-41, .cls-42, .cls-43, .cls-44, .cls-45, .cls-46, .cls-47, .cls-48, .cls-49, .cls-5, .cls-50, .cls-51, .cls-52, .cls-53, .cls-54, .cls-55, .cls-56, .cls-57, .cls-58, .cls-59, .cls-6, .cls-60, .cls-61, .cls-62, .cls-63, .cls-64, .cls-65, .cls-66, .cls-67, .cls-68, .cls-69, .cls-7, .cls-70, .cls-71, .cls-72, .cls-73, .cls-74, .cls-75, .cls-76, .cls-77, .cls-78, .cls-79, .cls-8, .cls-80, .cls-81, .cls-82, .cls-83, .cls-84, .cls-9 {
        fill-rule: evenodd;
      }

      .cls-3 {
        fill: #ced1d3;
      }

      .cls-4 {
        fill: #f5f6f8;
      }

      .cls-5 {
        fill: #bababd;
      }

      .cls-6 {
        fill: #f1f8fe;
      }

      .cls-7 {
        fill: #fdfdfd;
      }

      .cls-8 {
        fill: #b8babf;
      }

      .cls-9 {
        fill: #d4d3d0;
      }

      .cls-10 {
        fill: #bbb9b9;
      }

      .cls-11 {
        fill: #f6f6f7;
      }

      .cls-12 {
        fill: #d1d0d4;
      }

      .cls-13 {
        fill: #ebecec;
      }

      .cls-14 {
        fill: #ebecee;
      }

      .cls-15 {
        fill: #f3f9f8;
      }

      .cls-16 {
        fill: #faf9f7;
      }

      .cls-17 {
        fill: #f4f7f9;
      }

      .cls-18 {
        fill: #eef0ef;
      }

      .cls-19 {
        fill: #bfb9b5;
      }

      .cls-20 {
        fill: #c4c4c4;
      }

      .cls-21 {
        fill: #e7e7e7;
      }

      .cls-22 {
        fill: #d1d1d3;
      }

      .cls-23 {
        fill: #b8bbba;
      }

      .cls-24 {
        fill: #b9babc;
      }

      .cls-25 {
        fill: #e8edf0;
      }

      .cls-26 {
        fill: #f6f6f6;
      }

      .cls-27 {
        fill: #ebeced;
      }

      .cls-28 {
        fill: #f6f7f9;
      }

      .cls-29 {
        fill: #f8f6f8;
      }

      .cls-30 {
        fill: #bababc;
      }

      .cls-31 {
        fill: #e8e8e7;
      }

      .cls-32 {
        fill: #d0d1d7;
      }

      .cls-33 {
        fill: #ced2d2;
      }

      .cls-34 {
        fill: #feffff;
      }

      .cls-35 {
        fill: #ebe7e2;
      }

      .cls-36 {
        fill: #f5f7f6;
      }

      .cls-37 {
        fill: #b7b7b9;
      }

      .cls-38 {
        fill: #d2d0d4;
      }

      .cls-39 {
        fill: #ececec;
      }

      .cls-40 {
        fill: #efedea;
      }

      .cls-41 {
        fill: #c0b8b5;
      }

      .cls-42 {
        fill: #d0d1d3;
      }

      .cls-43 {
        fill: #fffffe;
      }

      .cls-44 {
        fill: #f7f5f8;
      }

      .cls-45 {
        fill: #ede8e1;
      }

      .cls-46 {
        fill: #f7f7f7;
      }

      .cls-47 {
        fill: #f2f2f4;
      }

      .cls-48 {
        fill: #ebecef;
      }

      .cls-49 {
        fill: #f0edeb;
      }

      .cls-50 {
        fill: #fbf5f2;
      }

      .cls-51 {
        fill: #f9f8f7;
      }

      .cls-52 {
        fill: #ccd2d8;
      }

      .cls-53 {
        fill: #b9b9c1;
      }

      .cls-54 {
        fill: #cdd2d3;
      }

      .cls-55 {
        fill: #d2d6d7;
      }

      .cls-56 {
        fill: #d4d0ce;
      }

      .cls-57 {
        fill: #f9f3f2;
      }

      .cls-58 {
        fill: #f1ebe4;
      }

      .cls-59 {
        fill: #ededef;
      }

      .cls-60 {
        fill: #fbf5f0;
      }

      .cls-61 {
        fill: #cecfd9;
      }

      .cls-62 {
        fill: #cfd2d3;
      }

      .cls-63 {
        fill: #fcfdfc;
      }

      .cls-64 {
        fill: #beb9b8;
      }

      .cls-65 {
        fill: #b6b6b8;
      }

      .cls-66 {
        fill: #d1d3d2;
      }

      .cls-67 {
        fill: #e0e2e1;
      }

      .cls-68 {
        fill: #b6bac0;
      }

      .cls-69 {
        fill: #b4beb6;
      }

      .cls-70 {
        fill: #f6f3f4;
      }

      .cls-71 {
        fill: #fffdf5;
      }

      .cls-72 {
        fill: #eff1f0;
      }

      .cls-73 {
        fill: #bdb9b6;
      }

      .cls-74 {
        fill: #d2d0d0;
      }

      .cls-75 {
        fill: #d7d2cf;
      }

      .cls-76 {
        fill: #dde3df;
      }

      .cls-77 {
        fill: #e0e1e3;
      }

      .cls-78 {
        fill: #babac0;
      }

      .cls-79 {
        fill: #b5bbc0;
      }

      .cls-80 {
        fill: #c4bbb4;
      }

      .cls-81 {
        fill: #b4bcc2;
      }

      .cls-82 {
        fill: #d5d3ce;
      }

      .cls-83 {
        fill: #f6f7fa;
      }

      .cls-84 {
        fill: #f3f7fa;
      }
    </style>
    <linearGradient id="linear-gradient" x1="640" y1="720" x2="640" gradientUnits="userSpaceOnUse">
      <stop offset="0" stop-color="#3684c2"/>
      <stop offset="0.438" stop-color="#3684c2"/>
      <stop offset="1" stop-color="#1f589a"/>
    </linearGradient>
  </defs>
  <rect class="cls-1" width="1280" height="720"/>
  <path class="cls-2" d="M135.822,146.961l-1.538-2.819,15.892-3.076h11.279l3.588-4.358,11.279-1.794,12.56,1.794v-4.1l14.867-3.589,16.405,3.076,6.152,6.152,20.762-2.307,18.2,5.127,4.871,6.664-19.994,4.87-17.943.769-3.845-.256L218.1,149.781,206.825,152.6l-15.124-.512-5.895-2.307L165.3,150.806l-18.969-3.076-6.92-1.025Z"/>
  <path class="cls-2" d="M133.771,144.142l1.8,3.076,25.889,0.769,29.477-2.564-10.509-1.538-26.145.769Z"/>
  <path class="cls-3" d="M170.17,149.524l-8.715,1.795,24.351-1.026,14.867-2.306Z"/>
  <path class="cls-4" d="M161.455,147.987l29.477-2.564,9.741,2.564-30.5,1.537Z"/>
  <path class="cls-5" d="M135.566,147.218l25.889,0.769,8.715,1.537-9.228,1.795-12.56-2.82Z"/>
  <path class="cls-6" d="M133.771,144.142l16.149-3.333h11.535l18.968,3.076-26.145.769Z"/>
  <path class="cls-7" d="M190.932,145.423l8.2-.512,1.538,3.076Z"/>
  <path class="cls-8" d="M200.673,147.987l7.69,2.563-1.538,2.307L191.7,152.6l-5.895-2.307Z"/>
  <path class="cls-2" d="M223.486,147.73l23.838-7.946,4.871,9.74Z"/>
  <path class="cls-9" d="M223.486,147.73l-15.123,2.82-1.538,2.307,11.278-2.564Z"/>
  <path class="cls-10" d="M218.1,150.293l5.383-2.563,5.127,6.152Z"/>
  <path class="cls-11" d="M223.486,147.73l5.127,6.152,23.582-4.358Z"/>
  <path class="cls-12" d="M228.613,153.882l23.582-4.358-3.076,3.589Z"/>
  <path class="cls-13" d="M252.2,149.524l-3.076,3.589,21.788-5.126Z"/>
  <path class="cls-2" d="M252.2,149.524l13.329-8.715,5.383,7.178Z"/>
  <path class="cls-4" d="M247.324,139.784l4.871,9.74,13.329-8.715Z"/>
  <path class="cls-2" d="M265.524,140.809l-18.2-1.025-22.044.769,21.788-4.87Z"/>
  <path class="cls-4" d="M247.068,139.784l-21.788.769-1.794,7.177Z"/>
  <path class="cls-14" d="M225.28,140.553l21.788-4.87-20.25,2.307Z"/>
  <path class="cls-2" d="M226.818,137.99l-1.538,2.563-1.794,7.177-15.123,2.563-7.69-2.306-1.538-3.076-15.892-6.152-2.82,5.126-18.968-3.076,15.892-6.152,11.278,1.795,14.611-3.332v-4.358l11.535,4.614,6.664-1.282Z"/>
  <path class="cls-15" d="M188.625,136.452l14.611-3.332v-4.358l-14.611,3.332v4.358Z"/>
  <path class="cls-16" d="M221.435,132.094l-6.664,1.282-11.535-4.614Z"/>
  <path class="cls-17" d="M161.455,140.809l15.892-6.152-12.56,1.538Z"/>
  <path class="cls-18" d="M180.423,143.885l2.82-5.126,15.892,6.152-8.2.512Z"/>
  <path class="cls-2" d="M18.265,312.119l-2.2-9.891,11.356-7.692,5.861-6.594,11.722-4.03,10.257,1.1,4.762-6.593,5.128-2.931,8.425,0.733,4.762,2.2,9.891,8.059,12.088-2.931L117.171,296l4.762,10.623L107.28,318.713l-19.048-.367-9.158-.366-12.455,2.564-12.455.367-8.792-2.565-15.385-2.93Z"/>
  <path class="cls-19" d="M17.9,312.485l4.03-4.4,4.762,7.326Z"/>
  <path class="cls-20" d="M17.9,312.485l4.03-4.4-6.594-6.961Z"/>
  <path class="cls-21" d="M21.928,308.09l4.762,7.326,12.821-2.931Z"/>
  <path class="cls-22" d="M26.69,315.416l12.821-2.931,23.078-2.93-17.95,8.791Z"/>
  <path class="cls-4" d="M21.928,308.09l17.583,4.4,23.078-2.93-8.425-5.861Z"/>
  <path class="cls-4" d="M44.64,318.346l17.95-8.791,6.594,5.861Z"/>
  <path class="cls-23" d="M44.64,318.346l9.524,3.3,13.188-.366,1.832-5.861Z"/>
  <path class="cls-2" d="M62.589,309.555l6.594,5.861,15.385-2.931Z"/>
  <path class="cls-22" d="M67.352,321.277l1.832-5.861,15.385-2.931-4.762,5.861Z"/>
  <path class="cls-24" d="M79.806,318.346l4.762-5.861,0.733,5.861H79.806Z"/>
  <path class="cls-2" d="M15.334,301.129l6.594,6.961,32.236-4.4-10.623-4.03,7.693-8.791,16.851,10.256,16.484,11.356,1.832-20.88,1.832-5.861-3.663-4.762v2.564l-11.722-8.425-1.832,6.227L54.9,284.279l-10.257-1.1L27.423,294.536Z"/>
  <path class="cls-2" d="M86.4,291.605l13.92-8.792L117.171,294.9Z"/>
  <path class="cls-2" d="M84.569,312.485L100.32,293.07l9.525,17.95Z"/>
  <path class="cls-4" d="M100.32,293.07l9.525,17.95,7.326-16.118Z"/>
  <path class="cls-4" d="M84.569,312.485l1.832-20.88,13.92,1.465Z"/>
  <path class="cls-25" d="M88.232,285.744L86.4,291.605l13.92-8.792Z"/>
  <path class="cls-26" d="M84.569,312.485l0.733,5.861h1.1l23.445-7.326Z"/>
  <path class="cls-4" d="M43.541,299.664l7.693-8.791,16.851,10.256-13.92,2.565Z"/>
  <path class="cls-4" d="M68.084,301.129l-5.495,8.426,21.979,2.93Z"/>
  <path class="cls-27" d="M109.845,311.02l-2.931,8.425,15.752-12.821Z"/>
  <path class="cls-22" d="M86.4,318.346l23.445-7.326-2.931,8.425Z"/>
  <path class="cls-2" d="M117.171,294.9l-7.326,16.118,12.821-4.4Z"/>
  <path class="cls-2" d="M54.164,303.694l13.92-2.565-5.495,8.426Z"/>
  <path class="cls-11" d="M26.69,294.9L44.64,283.18l-12.088,4.029Z"/>
  <path class="cls-28" d="M72.846,275.121l-1.832,6.227L54.9,284.279l4.4-6.594,5.495-2.931Z"/>
  <path class="cls-29" d="M72.846,275.121l11.722,8.425v-2.564Z"/>
  <path class="cls-2" d="M431.107,164.791l9.756,0.723,7.589-2.168,5.782-10.118-3.253-6.866-5.059-5.059-14.815,6.866-2.891,7.949Z"/>
  <path class="cls-30" d="M427.855,156.118l2.891,9.034,3.613-5.781Z"/>
  <path class="cls-2" d="M434.359,159.371l9.757-5.421,7.227-7.95-5.059-5.42-6.866,2.53-6.866,8.672,9.4-3.975Z"/>
  <path class="cls-31" d="M432.552,151.782l-1.806-3.975,8.672-4.7Z"/>
  <path class="cls-32" d="M430.746,165.152l3.613-5.781,6.143,6.5Z"/>
  <path class="cls-33" d="M440.5,165.875l8.673-6.5-0.723,4.7Z"/>
  <path class="cls-34" d="M449.175,159.371L451.343,146l3.252,7.228Z"/>
  <path class="cls-35" d="M454.6,153.228l-5.42,6.143-0.723,4.7Z"/>
  <path class="cls-14" d="M434.359,159.371h14.816l-5.059-5.421Z"/>
  <path class="cls-4" d="M434.359,159.371l6.143,6.5,8.673-6.5H434.359Z"/>
  <path class="cls-4" d="M451.343,146l-7.227,7.95,5.059,5.421Z"/>
  <path class="cls-36" d="M430.746,147.807l-2.891,8.311,6.5,3.253,7.589-11.564-9.4,3.975Z"/>
  <path class="cls-2" d="M585.926,145.158l-1.737-6.948,8.337-8.684,16.327-2.084,14.937,7.989,1.042,9.032-13.548,12.5-14.242-3.126Z"/>
  <path class="cls-37" d="M583.842,138.21l1.737,7.295,11.81,9.032-5.21-10.074Z"/>
  <path class="cls-38" d="M597.389,154.537l17.021-2.779-2.779,5.558Z"/>
  <path class="cls-2" d="M614.41,151.758l9.727-16.674,1.389,9.379Z"/>
  <path class="cls-14" d="M614.41,151.758l-22.231-7.3,16.674-2.432Z"/>
  <path class="cls-39" d="M592.179,135.084v-5.558l16.674-2.779Z"/>
  <path class="cls-4" d="M592.179,144.463l5.21,10.074,17.021-2.779Z"/>
  <path class="cls-40" d="M611.631,157.316l2.779-5.558,11.116-7.3Z"/>
  <path class="cls-4" d="M614.41,151.758l-5.557-9.727,15.284-6.947Z"/>
  <path class="cls-4" d="M583.842,138.21l8.337-8.684v5.558l16.674-1.042-16.674,10.421Z"/>
  <path class="cls-2" d="M608.853,126.747l-16.674,8.337,16.674-1.042-16.674,10.421,16.674-2.432,15.284-6.947Z"/>
  <path class="cls-2" d="M1148.39,228.6l-1.73-6.947,8.33-8.685,16.33-2.084,14.94,7.99,1.04,9.031-13.55,12.506-14.24-3.127Z"/>
  <path class="cls-37" d="M1146.31,221.648l1.74,7.294,11.81,9.032-5.21-10.074Z"/>
  <path class="cls-38" d="M1159.86,237.974l17.02-2.779-2.78,5.558Z"/>
  <path class="cls-2" d="M1176.88,235.2l9.73-16.674L1188,227.9Z"/>
  <path class="cls-14" d="M1176.88,235.2l-22.23-7.295,16.67-2.431Z"/>
  <path class="cls-39" d="M1154.65,218.521v-5.558l16.67-2.779Z"/>
  <path class="cls-4" d="M1154.65,227.9l5.21,10.074,17.02-2.779Z"/>
  <path class="cls-40" d="M1174.1,240.753l2.78-5.558L1188,227.9Z"/>
  <path class="cls-4" d="M1176.88,235.2l-5.56-9.726,15.29-6.948Z"/>
  <path class="cls-4" d="M1146.31,221.648l8.34-8.685v5.558l16.67-1.042L1154.65,227.9Z"/>
  <path class="cls-2" d="M1171.32,210.184l-16.67,8.337,16.67-1.042L1154.65,227.9l16.67-2.431,15.29-6.948Z"/>
  <path class="cls-2" d="M478.089,272.82l12.542-8.18,28.356-2.726,24.538,8.724,2.181,9.27-22.9,12-22.9-2.726-19.085-8.725Z"/>
  <path class="cls-41" d="M490.631,279.908L477,272.82,480.27,281l19.631,8.725Z"/>
  <path class="cls-42" d="M499.9,289.724l27.81-3.272-4.907,6Z"/>
  <path class="cls-43" d="M527.711,286.452l16.359-16.359,2.181,9.815Z"/>
  <path class="cls-14" d="M527.711,286.452l-36.535-6.544,27.811-2.726Z"/>
  <path class="cls-44" d="M491.176,279.908l8.725,9.816,27.81-3.272Z"/>
  <path class="cls-45" d="M522.8,292.45l23.447-12.542-18.54,6.544Z"/>
  <path class="cls-4" d="M518.987,277.182l25.083-7.089-16.359,16.359Z"/>
  <path class="cls-46" d="M491.176,279.908l27.811-11.451L493.9,269l25.084-7.635-28.9,2.727L477,272.82Z"/>
  <path class="cls-2" d="M518.987,261.368L493.9,269l25.084-.546-27.811,11.451,27.811-2.726,25.083-7.089Z"/>
  <path class="cls-2" d="M230.644,339.453l-1.566-2.871,16.182-3.132h11.484l3.654-4.437,11.485-1.827,12.789,1.827v-4.176l15.139-3.654,16.7,3.132,6.264,6.264,21.142-2.349,18.532,5.22,4.959,6.786-20.359,4.96-18.27.783-3.916-.261-10.44-3.393L302.943,345.2l-15.4-.522-6-2.349-20.881,1.044-19.314-3.133-7.047-1.044Z"/>
  <path class="cls-2" d="M228.556,336.582l1.827,3.132,26.361,0.783,30.016-2.61-10.7-1.566-26.623.783Z"/>
  <path class="cls-3" d="M265.619,342.063l-8.875,1.828,24.8-1.044,15.139-2.35Z"/>
  <path class="cls-4" d="M256.744,340.5l30.016-2.61,9.919,2.61-31.06,1.566Z"/>
  <path class="cls-5" d="M230.383,339.714l26.361,0.783,8.875,1.566-9.4,1.828-12.789-2.872Z"/>
  <path class="cls-6" d="M228.556,336.582L245,333.189h11.745l19.315,3.132-26.623.783Z"/>
  <path class="cls-7" d="M286.76,337.887l8.353-.522,1.566,3.132Z"/>
  <path class="cls-8" d="M296.679,340.5l7.83,2.611-1.566,2.349-15.4-.261-6-2.349Z"/>
  <path class="cls-2" d="M319.908,340.236l24.274-8.091,4.959,9.918Z"/>
  <path class="cls-9" d="M319.908,340.236l-15.4,2.872-1.566,2.349,11.484-2.61Z"/>
  <path class="cls-10" d="M314.427,342.847l5.481-2.611,5.22,6.265Z"/>
  <path class="cls-11" d="M319.908,340.236l5.22,6.265,24.013-4.438Z"/>
  <path class="cls-12" d="M325.128,346.5l24.013-4.438-3.132,3.655Z"/>
  <path class="cls-13" d="M349.141,342.063l-3.132,3.655L368.2,340.5Z"/>
  <path class="cls-2" d="M349.141,342.063l13.573-8.874L368.2,340.5Z"/>
  <path class="cls-4" d="M344.182,332.145l4.959,9.918,13.573-8.874Z"/>
  <path class="cls-2" d="M362.714,333.189l-18.532-1.044-22.447.783,22.186-4.959Z"/>
  <path class="cls-4" d="M343.921,332.145l-22.186.783-1.827,7.308Z"/>
  <path class="cls-14" d="M321.735,332.928l22.186-4.959-20.62,2.349Z"/>
  <path class="cls-2" d="M323.3,330.318l-1.566,2.61-1.827,7.308-15.4,2.611-7.83-2.35-1.566-3.132L278.93,331.1l-2.871,5.22-19.315-3.132,16.183-6.264,11.484,1.827,14.878-3.393v-4.437l11.745,4.7,6.786-1.305Z"/>
  <path class="cls-15" d="M284.411,328.752l14.878-3.393v-4.437l-14.878,3.393v4.437Z"/>
  <path class="cls-16" d="M317.82,324.315l-6.786,1.305-11.745-4.7Z"/>
  <path class="cls-17" d="M256.744,333.189l16.183-6.264-12.79,1.566Z"/>
  <path class="cls-18" d="M276.059,336.321l2.871-5.22,16.183,6.264-8.353.522Z"/>
  <path class="cls-4" d="M147.756,187.763l1.795,0.718,14.72-1.436,6.463,6.1,12.925-.359,9.335-5.386h1.436l10.412,5.386,16.874-1.8,15.439-12.207-5.386-11.13-15.8-11.489-14,3.232-4.309-8.976-9.694-3.231L175.4,153.3l-2.154,8.258-9.694-3.231-10.771,3.949-4.667,5.745L143.089,181.3Z"/>
  <path class="cls-4" d="M170.734,176.274l-10.771-3.949,7.9-8.617,9.693,10.412Z"/>
  <path class="cls-4" d="M170.734,176.274l-28,5.745,11.848,3.231,24.056-3.231Z"/>
  <path class="cls-47" d="M178.633,182.019l-1.078-7.9,20.824,7.9-12.925,5.744Z"/>
  <path class="cls-4" d="M198.379,182.019l6.463,11.489,20.106-9.335Z"/>
  <path class="cls-48" d="M224.948,184.173l-2.873,7.54,15.8-12.567Z"/>
  <path class="cls-4" d="M224.948,184.173l-8.976-18.311,16.156,1.8Z"/>
  <path class="cls-4" d="M198.379,182.019l17.593-16.157-15.439-2.154Z"/>
  <path class="cls-49" d="M200.533,163.708l1.8-4.667,13.643-3.232Z"/>
  <path class="cls-4" d="M172.888,160.836l1.795-7.9,12.925-6.1-1.436,5.744Z"/>
  <path class="cls-50" d="M198.379,150.065l-0.718,2.513-7.9-5.026Z"/>
  <path class="cls-51" d="M147.756,167.657l16.515-9.693-11.848,3.949Z"/>
  <path class="cls-2" d="M187.608,146.834l2.155,0.718,7.9,5.026,0.718-2.513,3.95,8.976-1.8,4.667-2.154,18.311-20.824-7.9-9.693-10.412-7.9,8.617,10.771,3.949-28,5.745,5.027-14.362,16.515-9.693,8.617,2.872,13.284-8.258Z"/>
  <path class="cls-2" d="M177.555,174.12l-6.821,2.154,7.9,5.745Z"/>
  <path class="cls-2" d="M198.379,182.019l17.593-16.157,8.976,18.311Z"/>
  <path class="cls-52" d="M224.948,184.173l-20.106,9.335,17.233-1.8Z"/>
  <path class="cls-2" d="M224.948,184.173l7.18-16.516,5.745,11.489Z"/>
  <path class="cls-2" d="M200.533,163.708l15.439-7.9,16.156,11.848Z"/>
  <path class="cls-53" d="M142.729,182.019l5.027,6.821,6.821-3.59Z"/>
  <path class="cls-24" d="M178.633,182.019l-14.362,5.744,6.463,5.745h12.925l1.8-5.745Z"/>
  <path class="cls-24" d="M198.379,182.019l-4.667,5.744,11.13,5.745Z"/>
  <path class="cls-54" d="M147.756,188.84l6.821-3.59,22.978-3.231-13.284,5.744Z"/>
  <path class="cls-22" d="M183.659,193.508l1.8-5.745,12.925-5.744-4.667,5.744Z"/>
  <path class="cls-2" d="M140.7,270.5l7.206-2.162,2.162-10.809L124.124,246l-19.457-.72-7.206-16.574-22.339-5.765-18.015,5.765-1.441-15.854L31.886,200.6l-4.324,1.441L1.62,212.852l-9.368,23.781-35.31-10.089L-74.043,245.28l-8.647,26.662,3.6,2.162,33.148,16.574,33.869,2.883L5.944,279.869l21.618,10.809,25.221-.72,10.088-10.089,43.237,3.6,22.339-10.088Z"/>
  <path class="cls-2" d="M151.507,257.53l-2.882,11.53-16.574.721-29.545,2.882L52.784,262.574,70.8,256.81Z"/>
  <path class="cls-2" d="M70.8,256.81l53.325-12.251-21.618-.72L75.843,222.22l-19.456,7.927v-2.162l-24.5-12.25V199.882L10.268,215.735l-9.368-3.6-9.368,23.059,3.6,8.648,2.882,28.1,40.354-12.971L67.2,237.353Z"/>
  <path class="cls-18" d="M70.8,256.81l-3.6-19.457L38.372,258.971l14.412,3.6Z"/>
  <path class="cls-22" d="M102.506,272.663L52.784,262.574l-17.295,9.368,54.766,6.486Z"/>
  <path class="cls-55" d="M132.051,269.781l-7.927,5.764,24.5-6.485Z"/>
  <path class="cls-56" d="M-1.983,271.942l25.221,9.368,3.6,10.089L6.665,281.31Z"/>
  <path class="cls-2" d="M-1.983,271.942l-41.075-30.986-9.368,37.472Z"/>
  <path class="cls-2" d="M-52.425,278.428l-22.339-33.869-9.368,28.1Z"/>
  <path class="cls-2" d="M-74.764,244.559l31.707-3.6,38.192,2.883L-43.057,225.1Z"/>
  <path class="cls-22" d="M-52.425,278.428l41.075,15.853L-45.94,291.4Z"/>
  <path class="cls-57" d="M31.886,199.882L10.268,215.735l-9.368-3.6Z"/>
  <path class="cls-4" d="M75.843,222.22l-19.456,7.927v-2.162l-24.5-12.25V199.882l24.5,12.25,1.441,15.853Z"/>
  <path class="cls-58" d="M-8.468,235.191l3.6,8.648L-43.057,225.1Z"/>
  <path class="cls-4" d="M-1.983,271.942l-2.882-28.1-38.192-2.883Z"/>
  <path class="cls-4" d="M-43.057,240.956l-31.707,3.6,22.339,33.869Z"/>
  <path class="cls-59" d="M-45.94,291.4l-6.485-12.971-31.707-5.765Z"/>
  <path class="cls-4" d="M-1.983,271.942l-9.368,22.339-41.075-15.853Z"/>
  <path class="cls-28" d="M70.8,256.81l53.325-12.251,27.383,12.251v0.72Z"/>
  <path class="cls-60" d="M104.667,243.839h-2.161L75.843,222.22l22.339,5.765Z"/>
  <path class="cls-2" d="M52.784,262.574l-14.412-3.6-2.883,12.971Z"/>
  <path class="cls-47" d="M23.239,281.31l12.25-9.368,2.883-12.971L-1.983,271.942Z"/>
  <path class="cls-30" d="M132.051,269.781l-7.927,5.764-18.736,9.368-15.133-6.485,12.251-5.765Z"/>
  <path class="cls-30" d="M23.239,281.31l3.6,10.089H52.784L62.872,281.31l-27.383-8.647Z"/>
  <path class="cls-30" d="M6.665,281.31l-8.647-8.647-9.368,21.618Z"/>
  <path class="cls-22" d="M105.388,284.913l-15.133-6.485-54.766-6.486,27.383,9.368Z"/>
  <path class="cls-2" d="M1077.7,187.445l-8.51-2.555-2.56-12.773,30.66-13.625,22.99-.851,8.52-19.586,26.39-6.813,21.29,6.813,1.71-18.735,28.1-14.476,5.11,1.7,30.65,12.773,11.07,28.1,41.73-11.922,36.62,22.141,10.22,31.507-4.26,2.555-39.17,19.586-40.03,3.406-21.29-16.18-25.54,12.774-29.81-.852-11.92-11.922-51.09,4.258-26.4-11.922Z"/>
  <path class="cls-2" d="M1064.93,172.117l3.41,13.625,19.58,0.852L1122.84,190l58.75-11.922-21.29-6.813Z"/>
  <path class="cls-2" d="M1160.3,171.265l-63.01-14.476,25.55-.852,31.5-25.546,22.99,9.367V137.2l28.96-14.476V103.992l25.54,18.735,11.07-4.258,11.08,27.25-4.26,10.218-3.41,33.211-47.69-15.328-34.06-25.547Z"/>
  <path class="cls-18" d="M1160.3,171.265l4.26-22.992,34.06,25.547-17.03,4.258Z"/>
  <path class="cls-22" d="M1122.84,190l58.75-11.922,20.44,11.07-64.72,7.664Z"/>
  <path class="cls-55" d="M1087.92,186.594l9.37,6.812-28.95-7.664Z"/>
  <path class="cls-56" d="M1246.31,189.148l-29.8,11.07-4.26,11.922,23.84-11.922Z"/>
  <path class="cls-2" d="M1246.31,189.148l48.54-36.617,11.07,44.281Z"/>
  <path class="cls-2" d="M1305.92,196.812l26.4-40.023L1343.39,190Z"/>
  <path class="cls-2" d="M1332.32,156.789l-37.47-4.258-45.13,3.406,45.13-22.14Z"/>
  <path class="cls-22" d="M1305.92,196.812l-48.54,18.734,40.88-3.406Z"/>
  <path class="cls-57" d="M1206.29,103.992l25.54,18.735,11.07-4.258Z"/>
  <path class="cls-4" d="M1154.34,130.391l22.99,9.367V137.2l28.96-14.476V103.992l-28.96,14.477-1.7,18.734Z"/>
  <path class="cls-58" d="M1253.98,145.719l-4.26,10.218,45.13-22.14Z"/>
  <path class="cls-4" d="M1246.31,189.148l3.41-33.211,45.13-3.406Z"/>
  <path class="cls-4" d="M1294.85,152.531l37.47,4.258-26.4,40.023Z"/>
  <path class="cls-59" d="M1298.26,212.14l7.66-15.328L1343.39,190Z"/>
  <path class="cls-4" d="M1246.31,189.148l11.07,26.4,48.54-18.734Z"/>
  <path class="cls-28" d="M1160.3,171.265l-63.01-14.476-32.36,14.476v0.852Z"/>
  <path class="cls-60" d="M1120.28,155.937h2.56l31.5-25.546-26.4,6.812Z"/>
  <path class="cls-2" d="M1181.59,178.078l17.03-4.258,3.41,15.328Z"/>
  <path class="cls-47" d="M1216.51,200.218l-14.48-11.07-3.41-15.328,47.69,15.328Z"/>
  <path class="cls-30" d="M1087.92,186.594l9.37,6.812,22.14,11.07,17.88-7.664L1122.84,190Z"/>
  <path class="cls-30" d="M1216.51,200.218l-4.26,11.922h-30.66l-11.92-11.922L1202.03,190Z"/>
  <path class="cls-30" d="M1236.09,200.218L1246.31,190l11.07,25.546Z"/>
  <path class="cls-22" d="M1119.43,204.476l17.88-7.664,64.72-7.664-32.36,11.07Z"/>
  <path class="cls-2" d="M228.559,326.438l3.372-9.078,11.152-5.706,8.041,2.853,11.412-9.6,9.337,1.815,4.15-3.112,8.04,5.965L297.291,319.7l4.409,4.928-6.225,4.15-11.152,1.037-11.153,1.816-8.559,2.853-5.188-4.669-6.743,4.409-11.412-1.037Z"/>
  <path class="cls-22" d="M228.3,326.7l3.371-9.338,7.263,11.672Z"/>
  <path class="cls-61" d="M238.934,329.032l2.075,4.409,11.671,1.038Z"/>
  <path class="cls-62" d="M252.68,334.479l3.631-7.263,5.965,3.631-2.853-.778Z"/>
  <path class="cls-2" d="M256.83,319.435l-5.706-5.446-8.819-2.853,6.485,7Z"/>
  <path class="cls-63" d="M251.124,313.989l11.152-9.337-5.446,8.04Z"/>
  <path class="cls-43" d="M262.276,304.652l5.447,3.371,4.15-1.815Z"/>
  <path class="cls-22" d="M271.873,306.208l4.15-2.853,1.037,4.15Z"/>
  <path class="cls-64" d="M267.983,327.994l5.187,3.891,11.671-1.816Z"/>
  <path class="cls-65" d="M284.841,330.069l-5.187-3.631,1.556-4.668Z"/>
  <path class="cls-28" d="M281.21,321.77l3.113-12.45,6.743,10.115Z"/>
  <path class="cls-22" d="M284.841,330.069l12.45-4.409,4.928-.778-6.484,4.15Z"/>
  <path class="cls-66" d="M256.83,319.435v-6.743l-5.706,1.3Z"/>
  <path class="cls-67" d="M267.983,327.994l11.671-1.556,5.187,3.631Z"/>
  <path class="cls-4" d="M281.21,321.77l16.081-2.335v6.225l-12.45,4.409Z"/>
  <path class="cls-18" d="M238.934,329.032l17.377-1.816-3.631,7.263Z"/>
  <path class="cls-68" d="M228.3,326.7l12.709,6.743-2.075-4.409Z"/>
  <path class="cls-69" d="M259.423,330.069l2.853,0.778,10.634,1.038L264.351,335Z"/>
  <path class="cls-70" d="M267.723,308.023l16.6,1.3-7.263-1.815-5.187-1.3Z"/>
  <path class="cls-18" d="M256.83,319.435l7-3.89,3.89-7.522-5.447-3.371-5.446,8.04v6.743Z"/>
  <path class="cls-34" d="M297.291,319.435v6.225l4.928-.778Z"/>
  <path class="cls-2" d="M281.21,321.77l9.856-2.335-6.743-10.115,12.968,10.115Z"/>
  <path class="cls-71" d="M276.023,303.355l1.037,4.15,7.263,1.815Z"/>
  <path class="cls-2" d="M267.723,308.023l14.784,8.819,1.816-7.522Z"/>
  <path class="cls-18" d="M256.311,327.216l15.562-5.446,7.781,4.668-11.671,1.556,5.187,3.891-10.894-1.038Z"/>
  <path class="cls-72" d="M271.873,321.77l10.634-4.928-2.853,9.6Z"/>
  <path class="cls-28" d="M231.671,317.36l10.634-6.224,6.485,7,8.04,1.3,7-3.89,4.15-7.522,14.524,8.819-10.634,4.928-15.562,5.446-17.377,1.816Z"/>
  <path class="cls-2" d="M420.153,183.968l-2.815-5.159,29.082-5.629h20.639l6.567-7.974,20.639-3.284,22.984,3.284v-7.5l27.206-6.567,30.02,5.628,11.258,11.258,37.994-4.222,33.3,9.382,8.913,12.195-36.588,8.913L596.521,195.7l-7.036-.469-18.763-6.1-20.638,5.16-27.675-.939-10.789-4.221L474.1,191l-34.711-5.629L426.72,183.5Z"/>
  <path class="cls-2" d="M416.4,178.809l3.284,5.628,47.375,1.407L521,181.154l-19.232-2.815-47.845,1.408Z"/>
  <path class="cls-3" d="M483.007,188.659l-15.948,3.283,44.561-1.876,27.206-4.222Z"/>
  <path class="cls-4" d="M467.059,185.844L521,181.154l17.824,4.69-55.819,2.815Z"/>
  <path class="cls-5" d="M419.684,184.437l47.375,1.407,15.948,2.815-16.886,3.283-22.984-5.159Z"/>
  <path class="cls-6" d="M416.4,178.809l29.551-6.1h21.108l34.711,5.628-47.845,1.408Z"/>
  <path class="cls-7" d="M521,181.154l15.01-.938,2.814,5.628Z"/>
  <path class="cls-8" d="M538.826,185.844l14.072,4.691-2.814,4.222-27.675-.469-10.789-4.222Z"/>
  <path class="cls-2" d="M580.573,185.375L624.2,170.834l8.912,17.825Z"/>
  <path class="cls-9" d="M580.573,185.375l-27.675,5.16-2.814,4.222,20.638-4.691Z"/>
  <path class="cls-10" d="M570.722,190.066l9.851-4.691,9.381,11.258Z"/>
  <path class="cls-11" d="M580.573,185.375l9.381,11.258,43.154-7.974Z"/>
  <path class="cls-12" d="M589.954,196.633l43.154-7.974-5.629,6.567Z"/>
  <path class="cls-13" d="M633.108,188.659l-5.629,6.567,39.871-9.382Z"/>
  <path class="cls-2" d="M633.108,188.659L657.5,172.711l9.851,13.133Z"/>
  <path class="cls-4" d="M624.2,170.834l8.912,17.825L657.5,172.711Z"/>
  <path class="cls-2" d="M657.5,172.711l-33.3-1.877-40.34,1.408,39.871-8.913Z"/>
  <path class="cls-4" d="M623.727,170.834l-39.871,1.408-3.283,13.133Z"/>
  <path class="cls-14" d="M583.856,172.242l39.871-8.913-37.056,4.222Z"/>
  <path class="cls-2" d="M586.671,167.551l-2.815,4.691-3.283,13.133L552.9,190.066l-14.072-4.222-2.814-5.628L506.93,168.958l-5.16,9.381-34.711-5.628,29.082-11.258,20.639,3.284,26.737-6.1v-7.974l21.108,8.443,12.2-2.346Z"/>
  <path class="cls-15" d="M516.78,164.737l26.737-6.1v-7.974l-26.737,6.1v7.975Z"/>
  <path class="cls-16" d="M576.82,156.762l-12.2,2.346-21.108-8.443Z"/>
  <path class="cls-17" d="M467.059,172.711l29.082-11.258-22.984,2.815Z"/>
  <path class="cls-18" d="M501.77,178.339l5.16-9.381,29.082,11.258-15.01.938Z"/>
  <path class="cls-2" d="M713.257,69.3l-5.944-10.9,61.42-11.888h43.588L826.19,29.675l43.589-6.934,48.541,6.935V13.825L975.777-.044l63.4,11.888,23.77,23.775L1143.2,26.7l70.33,19.813,18.82,25.757-77.27,18.822-69.34,2.972-14.86-.991L1031.25,80.2l-43.585,10.9-58.448-1.981L906.432,80.2,827.181,84.16,753.874,72.273,727.126,68.31Z"/>
  <path class="cls-2" d="M705.332,58.4l6.935,11.888,100.054,2.972,113.924-9.906-40.616-5.944L784.583,60.385Z"/>
  <path class="cls-3" d="M846,79.207l-33.682,6.935,94.111-3.962,57.457-8.916Z"/>
  <path class="cls-4" d="M812.321,73.263l113.924-9.906,37.644,9.906L846,79.207Z"/>
  <path class="cls-5" d="M712.267,70.291l100.054,2.972L846,79.207,810.34,86.142,761.8,75.245Z"/>
  <path class="cls-6" d="M705.332,58.4l62.411-12.878h44.578l73.308,11.888L784.583,60.385Z"/>
  <path class="cls-7" d="M926.245,63.357l31.7-1.981,5.943,11.888Z"/>
  <path class="cls-8" d="M963.889,73.263l29.72,9.906-5.944,8.916-58.448-.991-22.785-8.916Z"/>
  <path class="cls-2" d="M1052.06,72.273l92.13-30.71,18.82,37.644Z"/>
  <path class="cls-9" d="M1052.06,72.273l-58.451,10.9-5.944,8.916,43.585-9.906Z"/>
  <path class="cls-10" d="M1031.25,82.179l20.81-9.906,19.81,23.775Z"/>
  <path class="cls-11" d="M1052.06,72.273l19.81,23.775,91.14-16.841Z"/>
  <path class="cls-12" d="M1071.87,96.048l91.14-16.841-11.89,13.869Z"/>
  <path class="cls-13" d="M1163.01,79.207l-11.89,13.869,84.21-19.813Z"/>
  <path class="cls-2" d="M1163.01,79.207l51.51-33.682,20.81,27.738Z"/>
  <path class="cls-4" d="M1144.19,41.563l18.82,37.644,51.51-33.682Z"/>
  <path class="cls-2" d="M1214.52,45.525l-70.33-3.963-85.2,2.972,84.21-18.822Z"/>
  <path class="cls-4" d="M1143.2,41.563l-84.21,2.972-6.93,27.738Z"/>
  <path class="cls-14" d="M1058.99,44.535l84.21-18.822-78.27,8.916Z"/>
  <path class="cls-2" d="M1064.93,34.628l-5.94,9.906-6.93,27.738-58.451,9.906-29.72-8.916-5.943-11.888L896.526,37.6l-10.9,19.813L812.321,45.525l61.42-23.775,43.588,6.934L973.8,15.806V-1.035L1018.37,16.8l25.76-4.953Z"/>
  <path class="cls-15" d="M917.329,28.684L973.8,15.806V-1.035L917.329,11.844V28.684Z"/>
  <path class="cls-16" d="M1044.13,11.844L1018.37,16.8,973.8-1.035Z"/>
  <path class="cls-17" d="M812.321,45.525l61.42-23.775L825.2,27.694Z"/>
  <path class="cls-18" d="M885.629,57.413l10.9-19.813,61.42,23.775-31.7,1.981Z"/>
  <path class="cls-2" d="M1089.99,249.668l2.23-4.086-23.03-4.458h-16.35l-5.2-6.314-16.34-2.6-18.2,2.6v-5.944l-21.549-5.2-23.774,4.457-8.915,8.915L928.773,233.7,902.4,241.124l-7.058,9.659,28.974,7.057,26,1.115,5.572-.372,14.858-4.829,16.345,4.086,21.917-.743,8.54-3.343,29.72,1.486,27.49-4.457,10.03-1.486Z"/>
  <path class="cls-2" d="M1092.96,245.582l-2.6,4.458-37.52,1.114-42.72-3.715,15.23-2.228,37.89,1.114Z"/>
  <path class="cls-3" d="M1040.21,253.383l12.63,2.6-35.29-1.486-21.542-3.343Z"/>
  <path class="cls-4" d="M1052.84,251.154l-42.72-3.715-14.112,3.715,44.2,2.229Z"/>
  <path class="cls-5" d="M1090.36,250.04l-37.52,1.114-12.63,2.229,13.38,2.6,18.2-4.086Z"/>
  <path class="cls-6" d="M1092.96,245.582l-23.4-4.829h-16.72l-27.49,4.458,37.89,1.114Z"/>
  <path class="cls-7" d="M1010.12,247.439l-11.883-.743-2.229,4.458Z"/>
  <path class="cls-8" d="M996.008,251.154l-11.144,3.715,2.229,3.343,21.917-.372,8.54-3.343Z"/>
  <path class="cls-2" d="M962.948,250.783L928.4,239.267l-7.057,14.116Z"/>
  <path class="cls-9" d="M962.948,250.783l21.916,4.086,2.229,3.343L970.748,254.5Z"/>
  <path class="cls-10" d="M970.748,254.5l-7.8-3.714-7.43,8.915Z"/>
  <path class="cls-11" d="M962.948,250.783l-7.43,8.915-34.174-6.315Z"/>
  <path class="cls-12" d="M955.518,259.7l-34.174-6.315,4.457,5.2Z"/>
  <path class="cls-13" d="M921.344,253.383l4.457,5.2-31.574-7.429Z"/>
  <path class="cls-2" d="M921.344,253.383l-19.317-12.63-7.8,10.4Z"/>
  <path class="cls-4" d="M928.4,239.267l-7.057,14.116-19.317-12.63Z"/>
  <path class="cls-2" d="M902.027,240.753l26.374-1.486,31.946,1.115-31.574-7.058Z"/>
  <path class="cls-4" d="M928.773,239.267l31.574,1.115,2.6,10.4Z"/>
  <path class="cls-14" d="M960.347,240.382l-31.574-7.058,29.346,3.343Z"/>
  <path class="cls-2" d="M958.119,236.667l2.228,3.715,2.6,10.4,21.916,3.714,11.144-3.343,2.229-4.458,23.033-8.915,4.08,7.43,27.49-4.458-23.03-8.915-16.34,2.6-21.177-4.829v-6.315l-16.715,6.687-9.659-1.858Z"/>
  <path class="cls-15" d="M1013.47,234.438l-21.177-4.829v-6.315l21.177,4.829v6.315Z"/>
  <path class="cls-16" d="M965.919,228.123l9.659,1.858,16.715-6.687Z"/>
  <path class="cls-17" d="M1052.84,240.753l-23.03-8.915,18.2,2.229Z"/>
  <path class="cls-18" d="M1025.35,245.211l-4.08-7.43L998.237,246.7l11.883,0.743Z"/>
  <path class="cls-2" d="M952.072,228.992l-1.538-2.819,15.892-3.076h11.279l3.588-4.358,11.279-1.794,12.558,1.794v-4.1L1020,211.05l16.4,3.075,6.16,6.152,20.76-2.307,18.2,5.127,4.87,6.664-20,4.871-17.94.769-3.84-.257-10.26-3.332-11.28,2.82-15.12-.513-5.89-2.307-20.51,1.025-18.969-3.076-6.92-1.025Z"/>
  <path class="cls-2" d="M950.021,226.173l1.8,3.076,25.889,0.769,29.475-2.564-10.507-1.537-26.145.768Z"/>
  <path class="cls-3" d="M986.42,231.556l-8.715,1.794,24.355-1.025,14.86-2.307Z"/>
  <path class="cls-4" d="M977.705,230.018l29.475-2.564,9.74,2.564-30.5,1.538Z"/>
  <path class="cls-5" d="M951.816,229.249l25.889,0.769,8.715,1.538-9.228,1.794-12.56-2.82Z"/>
  <path class="cls-6" d="M950.021,226.173l16.149-3.332h11.535l18.968,3.076-26.145.768Z"/>
  <path class="cls-7" d="M1007.18,227.454l8.2-.512,1.54,3.076Z"/>
  <path class="cls-8" d="M1016.92,230.018l7.69,2.563-1.54,2.307-15.12-.256-5.89-2.307Z"/>
  <path class="cls-2" d="M1039.74,229.761l23.83-7.946,4.87,9.741Z"/>
  <path class="cls-9" d="M1039.74,229.761l-15.13,2.82-1.54,2.307,11.28-2.563Z"/>
  <path class="cls-10" d="M1034.35,232.325l5.39-2.564,5.12,6.152Z"/>
  <path class="cls-11" d="M1039.74,229.761l5.12,6.152,23.58-4.357Z"/>
  <path class="cls-12" d="M1044.86,235.913l23.58-4.357-3.07,3.588Z"/>
  <path class="cls-13" d="M1068.44,231.556l-3.07,3.588,21.79-5.126Z"/>
  <path class="cls-2" d="M1068.44,231.556l13.33-8.715,5.39,7.177Z"/>
  <path class="cls-4" d="M1063.57,221.815l4.87,9.741,13.33-8.715Z"/>
  <path class="cls-2" d="M1081.77,222.841l-18.2-1.026-22.04.769,21.79-4.87Z"/>
  <path class="cls-4" d="M1063.32,221.815l-21.79.769-1.79,7.177Z"/>
  <path class="cls-14" d="M1041.53,222.584l21.79-4.87-20.25,2.307Z"/>
  <path class="cls-2" d="M1043.07,220.021l-1.54,2.563-1.79,7.177-15.13,2.564-7.69-2.307-1.54-3.076-15.887-6.152-2.82,5.127-18.968-3.076,15.892-6.152,11.283,1.794,14.61-3.332v-4.358l11.53,4.614,6.67-1.282Z"/>
  <path class="cls-15" d="M1004.88,218.483l14.61-3.332v-4.358l-14.61,3.332v4.358Z"/>
  <path class="cls-16" d="M1037.69,214.125l-6.67,1.282-11.53-4.614Z"/>
  <path class="cls-17" d="M977.705,222.841l15.892-6.152-12.56,1.538Z"/>
  <path class="cls-18" d="M996.673,225.917l2.82-5.127,15.887,6.152-8.2.512Z"/>
  <path class="cls-2" d="M371.018,285.27l2-3.674-20.708-4.008h-14.7l-4.676-5.678-14.7-2.338-16.366,2.338v-5.344l-19.372-4.676L261.13,265.9l-8.016,8.016-27.054-3.006-23.714,6.68L196,286.272l26.052,6.347,23.38,1,5.01-.334,13.36-4.343,14.7,3.675,19.706-.669,7.682-3.006,26.72,1.336,24.717-4.008,9.018-1.336Z"/>
  <path class="cls-2" d="M373.69,281.6l-2.338,4.008-33.735,1-38.41-3.34,13.694-2,34.069,1Z"/>
  <path class="cls-3" d="M326.261,288.61l11.356,2.338-31.73-1.336-19.372-3.006Z"/>
  <path class="cls-4" d="M337.617,286.606l-38.41-3.34-12.692,3.34,39.746,2Z"/>
  <path class="cls-5" d="M371.352,285.6l-33.735,1-11.356,2,12.024,2.338,16.367-3.674Z"/>
  <path class="cls-6" d="M373.69,281.6l-21.042-4.342H337.617L312.9,281.262l34.069,1Z"/>
  <path class="cls-7" d="M299.207,283.266l-10.688-.668-2,4.008Z"/>
  <path class="cls-8" d="M286.515,286.606l-10.02,3.34,2,3.007,19.706-.334,7.682-3.007Z"/>
  <path class="cls-2" d="M256.788,286.272l-31.062-10.354L219.38,288.61Z"/>
  <path class="cls-9" d="M256.788,286.272l19.707,3.674,2,3.007-14.7-3.341Z"/>
  <path class="cls-10" d="M263.8,289.612l-7.014-3.34-6.68,8.017Z"/>
  <path class="cls-11" d="M256.788,286.272l-6.68,8.017L219.38,288.61Z"/>
  <path class="cls-12" d="M250.108,294.289L219.38,288.61l4.008,4.677Z"/>
  <path class="cls-13" d="M219.38,288.61l4.008,4.677L195,286.606Z"/>
  <path class="cls-2" d="M219.38,288.61l-17.368-11.356L195,286.606Z"/>
  <path class="cls-4" d="M225.726,275.918L219.38,288.61l-17.368-11.356Z"/>
  <path class="cls-2" d="M202.012,277.254l23.714-1.336,28.724,1-28.39-6.346Z"/>
  <path class="cls-4" d="M226.06,275.918l28.39,1,2.338,9.352Z"/>
  <path class="cls-14" d="M254.45,276.92l-28.39-6.346,26.386,3.006Z"/>
  <path class="cls-2" d="M252.446,273.58l2,3.34,2.338,9.352,19.707,3.34,10.02-3.006,2-4.008,20.708-8.016,3.674,6.68,24.716-4.008-20.708-8.016-14.7,2.338-19.038-4.342v-5.678l-15.03,6.012-8.685-1.67Z"/>
  <path class="cls-15" d="M302.213,271.576l-19.038-4.342v-5.678l19.038,4.342v5.678Z"/>
  <path class="cls-16" d="M259.46,265.9l8.685,1.67,15.03-6.012Z"/>
  <path class="cls-17" d="M337.617,277.254l-20.708-8.016,16.366,2Z"/>
  <path class="cls-18" d="M312.9,281.262l-3.674-6.68L288.519,282.6l10.688,0.668Z"/>
  <path class="cls-2" d="M-69.183,140.6l-5.755-1.438L-76.376,129.1l26.615-12.947,17.983-.72L-23.866,99.6l22.3-4.316L18.573,83.78l2.158-5.035,20.86-2.877L85.469,90.973l30.211,9.351,17.264,7.193,12.228,15.825,10.79,12.228-9.351,6.474-40.282,13.667-5.754-.72-25.9-5.035-10.07,7.193L49.5,160.027l1.439-8.632-31.65,4.316L9.222,151.4l-40.281,2.877-15.106-7.912Z"/>
  <path class="cls-73" d="M18.573,157.149l30.93-4.316-2.158,8.632Z"/>
  <path class="cls-74" d="M49.5,152.833l-2.158,8.632,17.264-2.877Z"/>
  <path class="cls-47" d="M18.573,157.149l-9.351-5.035,28.773-9.351-3.6-11.509,36.685,8.632-6.474,18.7L49.5,152.833Z"/>
  <path class="cls-2" d="M37.995,142.763l-3.6-11.509-11.509,2.158Z"/>
  <path class="cls-75" d="M37.995,142.763L9.222,152.114l-41,3.6V142.763l15.825,6.474Z"/>
  <path class="cls-76" d="M71.083,139.886l34.527,17.263-0.719-11.509Z"/>
  <path class="cls-2" d="M104.891,145.64l12.228-17.263,28.773-5.755,5.754,18.7Z"/>
  <path class="cls-77" d="M71.083,139.886l-6.474,18.7L76.118,151.4Z"/>
  <path class="cls-78" d="M71.083,139.886L76.118,151.4l29.492,5.754Z"/>
  <path class="cls-79" d="M104.891,145.64l0.719,11.509,46.036-15.825Z"/>
  <path class="cls-80" d="M151.646,141.324l5.755-5.754-11.509-12.948,5.754,19.422"/>
  <path class="cls-47" d="M145.892,122.622l-28.773,5.755L116.4,99.6l17.263,5.755Z"/>
  <path class="cls-4" d="M117.119,128.377L104.891,99.6,81.873,116.868l-10.79,23.018,33.808,5.754Z"/>
  <path class="cls-81" d="M-31.778,142.763v12.948l-17.983-9.351Z"/>
  <path class="cls-82" d="M-74.937,139.886l43.159,2.877-17.983,3.6Z"/>
  <path class="cls-2" d="M116.4,99.6l0.719,28.773L104.891,99.6,81.873,116.868l-10.79,23.018L34.4,131.254,6.345,108.236l-3.6,17.983-52.51-10.79,21.579-.719L-5.164,93.85,15.7,83.78V98.885l26.615-10.07V73.709l44.6,15.106h13.667Z"/>
  <path class="cls-18" d="M6.345,108.236l-3.6,17.983,20.141,7.193L34.4,131.254Z"/>
  <path class="cls-4" d="M-31.778,142.763L2.749,126.219l20.141,7.193,15.106,9.351-53.948,6.474Z"/>
  <path class="cls-83" d="M2.749,126.219l-52.51-10.79-28.053,12.948,2.877,11.509,12.228-9.351Z"/>
  <path class="cls-2" d="M-74.937,139.886l12.228-9.351,65.457-4.316-34.527,16.544Z"/>
  <path class="cls-4" d="M15.7,98.885l26.615-10.07V73.709L19.293,76.586,15.7,83.78V98.885Z"/>
  <path class="cls-84" d="M-5.164,93.85l-23.018,20.86h-3.6L-25.3,98.885Z"/>
  <path class="cls-2" d="M985.732,100.436l-8.8-2.2-2.2-15.393,40.683-19.792,27.49-1.1L1055,37.763l34.09-6.6,30.78-17.592,3.3-7.7,31.89-4.4,67.07,23.09,46.18,14.294,26.39,11,18.69,24.19,16.49,18.692-14.29,9.9-61.57,20.892-8.8-1.1-39.58-7.7-15.4,11-23.09,4.4,2.2-13.195-48.38,6.6-15.39-6.6-61.57,4.4-23.09-12.094Z"/>
  <path class="cls-73" d="M1119.87,125.726l47.28-6.6-3.29,13.2Z"/>
  <path class="cls-74" d="M1167.15,119.128l-3.29,13.2,26.38-4.4Z"/>
  <path class="cls-47" d="M1119.87,125.726l-14.29-7.7,43.98-14.294-5.5-17.592,56.08,13.194-9.9,28.588-23.09-8.8Z"/>
  <path class="cls-2" d="M1149.56,103.735l-5.5-17.592-17.59,3.3Z"/>
  <path class="cls-75" d="M1149.56,103.735l-43.98,14.294-62.67,5.5V103.735l24.19,9.9Z"/>
  <path class="cls-76" d="M1200.14,99.337l52.78,26.389-1.1-17.593Z"/>
  <path class="cls-2" d="M1251.82,108.133l18.69-26.389,43.98-8.8,8.8,28.588Z"/>
  <path class="cls-77" d="M1200.14,99.337l-9.9,28.588,17.6-11Z"/>
  <path class="cls-78" d="M1200.14,99.337l7.7,17.592,45.08,8.8Z"/>
  <path class="cls-79" d="M1251.82,108.133l1.1,17.593,70.37-24.19Z"/>
  <path class="cls-80" d="M1323.29,101.536l8.79-8.8-17.59-19.792,8.8,29.687"/>
  <path class="cls-47" d="M1314.49,72.948l-43.98,8.8-1.1-43.981,26.39,8.8Z"/>
  <path class="cls-4" d="M1270.51,81.744l-18.69-43.981-35.19,26.389-16.49,35.185,51.68,8.8Z"/>
  <path class="cls-81" d="M1042.91,103.735v19.792l-27.49-14.294Z"/>
  <path class="cls-82" d="M976.936,99.337l65.974,4.4-27.49,5.5Z"/>
  <path class="cls-2" d="M1269.41,37.763l1.1,43.981-18.69-43.981-35.19,26.389-16.49,35.185-56.08-13.194-42.88-35.185-5.5,27.488-80.26-16.493,32.98-1.1,35.19-31.886,31.89-15.393v23.09l40.68-15.393V-1.82l68.17,23.09h20.89Z"/>
  <path class="cls-18" d="M1101.18,50.958l-5.5,27.488,30.79,11,17.59-3.3Z"/>
  <path class="cls-4" d="M1042.91,103.735l52.77-25.289,30.79,11,23.09,14.294-82.46,9.9Z"/>
  <path class="cls-83" d="M1095.68,78.446l-80.26-16.493L972.537,81.744l4.4,17.593,18.692-14.294Z"/>
  <path class="cls-2" d="M976.936,99.337l18.692-14.294,100.052-6.6-52.77,25.289Z"/>
  <path class="cls-4" d="M1115.48,36.664l40.68-15.393V-1.82l-35.19,4.4-5.49,11v23.09Z"/>
  <path class="cls-84" d="M1083.59,28.967L1048.4,60.853h-5.49l9.89-24.19Z"/>
  <path class="cls-2" d="M363.234,110.689l3.454-6.331L331,97.45H305.672l-8.059-9.786-25.328-4.029L244.08,87.664v-9.21L210.693,70.4,173.853,77.3,160.038,91.118l-46.625-5.181L72.543,97.45,61.606,112.416l44.9,10.937L146.8,125.08l8.634-.576,23.025-7.483,25.328,6.332,33.962-1.151,13.239-5.181,46.05,2.3,42.6-6.908,15.542-2.3Z"/>
  <path class="cls-2" d="M367.839,104.358l-4.029,6.907-58.138,1.727-66.2-5.756,23.6-3.454,58.714,1.727Z"/>
  <path class="cls-3" d="M286.1,116.446l19.572,4.029-54.685-2.3L217.6,112.992Z"/>
  <path class="cls-4" d="M305.672,112.992l-66.2-5.756L217.6,112.992l68.5,3.454Z"/>
  <path class="cls-5" d="M363.81,111.265l-58.138,1.727L286.1,116.446l20.723,4.029,28.206-6.332Z"/>
  <path class="cls-6" d="M367.839,104.358l-36.264-7.484h-25.9l-42.6,6.908,58.714,1.727Z"/>
  <path class="cls-7" d="M239.475,107.236l-18.42-1.152-3.454,6.908Z"/>
  <path class="cls-8" d="M217.6,112.992l-17.269,5.756,3.454,5.181,33.962-.576,13.239-5.18Z"/>
  <path class="cls-2" d="M166.37,112.416L112.837,94.572,101.9,116.446Z"/>
  <path class="cls-9" d="M166.37,112.416l33.962,6.332,3.454,5.181-25.328-5.756Z"/>
  <path class="cls-10" d="M178.458,118.173l-12.088-5.757-11.512,13.815Z"/>
  <path class="cls-11" d="M166.37,112.416l-11.512,13.815L101.9,116.446Z"/>
  <path class="cls-12" d="M154.858,126.231L101.9,116.446l6.908,8.058Z"/>
  <path class="cls-13" d="M101.9,116.446l6.908,8.058L59.88,112.992Z"/>
  <path class="cls-2" d="M101.9,116.446L71.968,96.874,59.88,112.992Z"/>
  <path class="cls-4" d="M112.837,94.572L101.9,116.446,71.968,96.874Z"/>
  <path class="cls-2" d="M71.968,96.874l40.869-2.3,49.5,1.727L113.413,85.362Z"/>
  <path class="cls-4" d="M113.413,94.572L162.341,96.3l4.029,16.117Z"/>
  <path class="cls-14" d="M162.341,96.3L113.413,85.362l45.474,5.181Z"/>
  <path class="cls-2" d="M158.887,90.543l3.454,5.756,4.029,16.117,33.962,5.757,17.269-5.181,3.454-6.908,35.689-13.815,6.331,11.513,42.6-6.908L269.983,83.059l-25.328,4.029-32.81-7.483V69.82l-25.9,10.361L170.975,77.3Z"/>
  <path class="cls-15" d="M244.655,87.089l-32.81-7.483V69.82l32.81,7.483v9.786Z"/>
  <path class="cls-16" d="M170.975,77.3l14.967,2.878,25.9-10.361Z"/>
  <path class="cls-17" d="M305.672,96.874L269.983,83.059l28.206,3.454Z"/>
  <path class="cls-18" d="M263.075,103.782l-6.331-11.513-35.689,13.815,18.42,1.152Z"/>
</svg>
