<svg id="right" xmlns="http://www.w3.org/2000/svg" width="331" height="720" viewBox="0 0 331 720">
  <defs>
    <style>
      .cls-1 {
        fill: #b9d022;
      }

      .cls-1, .cls-10, .cls-11, .cls-12, .cls-13, .cls-14, .cls-15, .cls-16, .cls-17, .cls-18, .cls-19, .cls-2, .cls-20, .cls-21, .cls-22, .cls-23, .cls-24, .cls-25, .cls-26, .cls-27, .cls-28, .cls-29, .cls-3, .cls-30, .cls-31, .cls-32, .cls-33, .cls-34, .cls-35, .cls-36, .cls-37, .cls-38, .cls-39, .cls-4, .cls-40, .cls-41, .cls-42, .cls-43, .cls-44, .cls-45, .cls-46, .cls-47, .cls-48, .cls-49, .cls-5, .cls-50, .cls-51, .cls-52, .cls-53, .cls-54, .cls-55, .cls-56, .cls-57, .cls-58, .cls-59, .cls-6, .cls-60, .cls-61, .cls-62, .cls-63, .cls-64, .cls-65, .cls-66, .cls-7, .cls-8, .cls-9 {
        fill-rule: evenodd;
      }

      .cls-2 {
        fill: #7aa226;
      }

      .cls-3 {
        fill: #b0cc16;
      }

      .cls-4 {
        fill: #73a725;
      }

      .cls-5 {
        fill: #b9ce1f;
      }

      .cls-6 {
        fill: #7ba20e;
      }

      .cls-7 {
        fill: #6a8d1b;
      }

      .cls-8 {
        fill: #7fa01d;
      }

      .cls-9 {
        fill: #394d04;
      }

      .cls-10 {
        fill: #678026;
      }

      .cls-11 {
        fill: #afc80a;
      }

      .cls-12 {
        fill: #75af1c;
      }

      .cls-13 {
        fill: #394e09;
      }

      .cls-14 {
        fill: #5f8019;
      }

      .cls-15 {
        fill: #68862d;
      }

      .cls-16 {
        fill: #acc80c;
      }

      .cls-17 {
        fill: #3c4b0d;
      }

      .cls-18 {
        fill: #3f5d0f;
      }

      .cls-19 {
        fill: #4e5f1b;
      }

      .cls-20 {
        fill: #648019;
      }

      .cls-21 {
        fill: #b8cf23;
      }

      .cls-22 {
        fill: #80a317;
      }

      .cls-23 {
        fill: #5f8311;
      }

      .cls-24 {
        fill: #acc90d;
      }

      .cls-25 {
        fill: #657c2a;
      }

      .cls-26 {
        fill: #70a41e;
      }

      .cls-27 {
        fill: #7ca020;
      }

      .cls-28 {
        fill: #442000;
      }

      .cls-29 {
        fill: #a9c90f;
      }

      .cls-30 {
        fill: #5d3304;
      }

      .cls-31 {
        fill: #658520;
      }

      .cls-32 {
        fill: #42621f;
      }

      .cls-33 {
        fill: #abc615;
      }

      .cls-34 {
        fill: #96ac06;
      }

      .cls-35 {
        fill: #6e8a24;
      }

      .cls-36 {
        fill: #97ad0d;
      }

      .cls-37 {
        fill: #3f5c1d;
      }

      .cls-38 {
        fill: #93a816;
      }

      .cls-39 {
        fill: #6c8728;
      }

      .cls-40 {
        fill: #9fc41b;
      }

      .cls-41 {
        fill: #adcc1d;
      }

      .cls-42 {
        fill: #9abc15;
      }

      .cls-43 {
        fill: #9ec413;
      }

      .cls-44 {
        fill: #5e8222;
      }

      .cls-45 {
        fill: #75b21c;
      }

      .cls-46 {
        fill: #aecc0f;
      }

      .cls-47 {
        fill: #435d2b;
      }

      .cls-48 {
        fill: #729d23;
      }

      .cls-49 {
        fill: #394d10;
      }

      .cls-50 {
        fill: #7cb02b;
      }

      .cls-51 {
        fill: #a3c611;
      }

      .cls-52 {
        fill: #542f03;
      }

      .cls-53 {
        fill: #3b1604;
      }

      .cls-54 {
        fill: #7db026;
      }

      .cls-55 {
        fill: #00a54f;
      }

      .cls-56 {
        fill: #036b3a;
      }

      .cls-57 {
        fill: #068043;
      }

      .cls-58 {
        fill: #1bb26b;
      }

      .cls-59 {
        fill: #00a650;
      }

      .cls-60 {
        fill: #088043;
      }

      .cls-61 {
        fill: #056839;
      }

      .cls-62 {
        fill: #7d402d;
      }

      .cls-63 {
        fill: #034c27;
      }

      .cls-64 {
        fill: #552523;
      }

      .cls-65 {
        fill: #a25744;
      }

      .cls-66 {
        fill: #055835;
      }
    </style>
  </defs>
  <g>
    <path class="cls-1" d="M1048,319l60,72-26-54Z" transform="translate(-949)"/>
    <path class="cls-2" d="M1108,391l-84-51,24-21Z" transform="translate(-949)"/>
    <path class="cls-3" d="M1024,340l-5,48,89,3Z" transform="translate(-949)"/>
    <path class="cls-4" d="M988,315l31,73,5-48Z" transform="translate(-949)"/>
    <path class="cls-5" d="M1019,388l-66-37,35-36Z" transform="translate(-949)"/>
    <path class="cls-6" d="M1019,388l-43-12-23-25Z" transform="translate(-949)"/>
    <path class="cls-7" d="M1019,388l-70,30,27-42Z" transform="translate(-949)"/>
    <path class="cls-8" d="M949,418h77l82-27-89-3Z" transform="translate(-949)"/>
    <path class="cls-9" d="M1026,418l-12,8-27,17-38-25h77Z" transform="translate(-949)"/>
    <path class="cls-10" d="M1058,442l-32-24-12,8Z" transform="translate(-949)"/>
    <path class="cls-11" d="M1108,391l-50,51-32-24Z" transform="translate(-949)"/>
    <path class="cls-12" d="M1058,442l33,3,17-54Z" transform="translate(-949)"/>
    <path class="cls-13" d="M1053,476l38-31-33-3Z" transform="translate(-949)"/>
    <path class="cls-14" d="M1091,445l33,4-16-58Z" transform="translate(-949)"/>
    <path class="cls-15" d="M1091,445l9,54-47-23Z" transform="translate(-949)"/>
    <path class="cls-16" d="M1100,499l24-50-33-4Z" transform="translate(-949)"/>
    <path class="cls-17" d="M1124,449l12,55-36-5Z" transform="translate(-949)"/>
    <path class="cls-18" d="M1124,449l46,21-16,20-18,14Z" transform="translate(-949)"/>
    <path class="cls-19" d="M1173,408l14,24-4,19-15,21Z" transform="translate(-949)"/>
    <path class="cls-20" d="M1124,449l49-41-4,63Z" transform="translate(-949)"/>
    <path class="cls-21" d="M1108,391l65,17-49,41Z" transform="translate(-949)"/>
    <path class="cls-22" d="M1082,337l24-24,79,13Z" transform="translate(-949)"/>
    <path class="cls-23" d="M1082,337l95,19,8-30Z" transform="translate(-949)"/>
    <path class="cls-24" d="M1134,378l-52-41,95,19Z" transform="translate(-949)"/>
    <path class="cls-25" d="M1108,391l26-13-52-41Z" transform="translate(-949)"/>
    <path class="cls-26" d="M1173,408l4-4,41-36-41-12-69,35Z" transform="translate(-949)"/>
    <path class="cls-27" d="M1280,157h-33l-7-49,40-21v70Z" transform="translate(-949)"/>
    <path class="cls-28" d="M1253,481l-7-15-73,6-38-3,2-4,36,3,36-5-32-25,3-2,40,26,22-2-17-34-52-18,4-4,19,3-11-16,1-5h2l17,23,27,8,29,58Z" transform="translate(-949)"/>
    <path class="cls-29" d="M1203,189l44-32-25,29Z" transform="translate(-949)"/>
    <path class="cls-30" d="M1267,475l13-13-5-210,5-11V190l-16-33h-9l24,50-7,23-2,12h-2l-42-83-3,12,15,36-42-17-12,2,62,28,18,34Z" transform="translate(-949)"/>
    <path class="cls-31" d="M1247,157l-54-29,47-20Z" transform="translate(-949)"/>
    <path class="cls-32" d="M1247,157l-44,32,23-44Z" transform="translate(-949)"/>
    <path class="cls-33" d="M1226,145l-23,44-7,1-12,2-10,2,19-66Z" transform="translate(-949)"/>
    <path class="cls-34" d="M1174,194l19-66-34,44Z" transform="translate(-949)"/>
    <path class="cls-35" d="M1193,128l-34,44-7-10Z" transform="translate(-949)"/>
    <path class="cls-36" d="M1193,128l47-20-48-34-12,37Z" transform="translate(-949)"/>
    <path class="cls-37" d="M1180,111l-29,7,41-44Z" transform="translate(-949)"/>
    <path class="cls-38" d="M1151,118l41-44V35l-49,68Z" transform="translate(-949)"/>
    <path class="cls-39" d="M1192,35l-49,68-7-13Z" transform="translate(-949)"/>
    <path class="cls-40" d="M1192,35V74l48,34-23-54Z" transform="translate(-949)"/>
    <path class="cls-41" d="M1217,54l23,54,40-21Z" transform="translate(-949)"/>
    <path class="cls-42" d="M1280,87l-63-33,47-54h16V87Z" transform="translate(-949)"/>
    <path class="cls-43" d="M1280,462l-14,45,14,11V462Z" transform="translate(-949)"/>
    <path class="cls-44" d="M1266,507l-14-27,28-18Z" transform="translate(-949)"/>
    <path class="cls-45" d="M1226,499l26-19-40-3Z" transform="translate(-949)"/>
    <path class="cls-46" d="M1226,499l40,8-14-27Z" transform="translate(-949)"/>
    <path class="cls-47" d="M1226,499l40,8-25,11Z" transform="translate(-949)"/>
    <path class="cls-48" d="M1216,526l25-8-15-19Z" transform="translate(-949)"/>
    <path class="cls-49" d="M1244,553l-28-27,25-8Z" transform="translate(-949)"/>
    <path class="cls-50" d="M1244,553l-3-35,25-11Z" transform="translate(-949)"/>
    <path class="cls-51" d="M1244,553l36-27v-9l-14-10Z" transform="translate(-949)"/>
    <path class="cls-52" d="M1268,553l8,170h14l-8-168Z" transform="translate(-949)"/>
    <path class="cls-53" d="M1265,555V724l13,1-9-169Z" transform="translate(-949)"/>
    <path class="cls-54" d="M1244,553l41-31-3,37Z" transform="translate(-949)"/>
  </g>
  <g>
    <path class="cls-55" d="M1268,534l12,36v47l-4-1Z" transform="translate(-949)"/>
    <path class="cls-56" d="M1268,686l8-70-8-82V686Z" transform="translate(-949)"/>
    <path class="cls-57" d="M1268,686l5,2,7-20V617l-4-1Z" transform="translate(-949)"/>
    <path class="cls-58" d="M1226,566l13-12-17-51Z" transform="translate(-949)"/>
    <path class="cls-59" d="M1262,687l6-1-29-132-13,12Z" transform="translate(-949)"/>
    <path class="cls-56" d="M1253,690l9-3-36-121Z" transform="translate(-949)"/>
    <path class="cls-60" d="M1183,597l10-12,36,43,24,62Z" transform="translate(-949)"/>
    <path class="cls-55" d="M1183,597l-37-22,47,10Z" transform="translate(-949)"/>
    <path class="cls-61" d="M1253,690L1146,575l37,22Z" transform="translate(-949)"/>
    <path class="cls-62" d="M1271,720l9-4v4h-9Z" transform="translate(-949)"/>
    <path class="cls-63" d="M1139,698l49-13,65,5h-65Z" transform="translate(-949)"/>
    <path class="cls-64" d="M1262,687l18,15V690l-9-3-3-1Z" transform="translate(-949)"/>
    <path class="cls-62" d="M1253,690v30h18l-9-33Z" transform="translate(-949)"/>
    <path class="cls-65" d="M1262,687l9,33,9-4V702Z" transform="translate(-949)"/>
    <path class="cls-66" d="M1189,658l-50,40,49-12Z" transform="translate(-949)"/>
    <path class="cls-59" d="M1189,658l64,32-65-4Z" transform="translate(-949)"/>
  </g>
</svg>
