<svg xmlns="http://www.w3.org/2000/svg" width="500" height="500" viewBox="0 0 500 500">
  <defs>
    <style>
      .cls-1 {
        fill: #f0f;
        fill-rule: evenodd;
      }
    </style>
  </defs>
  <path class="cls-1" d="M0,167.006V332.049H110L250,470V30L110,167.006H0Z"/>
  <path class="cls-1" d="M305,140V360s70-28.073,70-110C375,167.006,305,140,305,140Z"/>
  <path class="cls-1" d="M305,6V65s140,42.434,140,185.136S305,435,305,435v57s195-47.027,195-241.864S305,6,305,6Z"/>
  <path class="cls-1" d="M316.81,152.719L472,308.133l-38.8,38.854L278.013,191.573Zm116.392-.706L472,190.867,316.81,346.281l-38.8-38.854Z"/>
</svg>
